<mxfile host="Electron" agent="Mozilla/5.0 (Macintosh; Intel Mac OS X 10_15_7) AppleWebKit/537.36 (KHTML, like Gecko) draw.io/28.2.5 Chrome/138.0.7204.251 Electron/37.6.1 Safari/537.36" version="28.2.5">
  <diagram name="Aye-Aye Chef Complete Flow" id="complete-flow">
    <mxGraphModel dx="976" dy="752" grid="1" gridSize="10" guides="1" tooltips="1" connect="1" arrows="1" fold="1" page="1" pageScale="1" pageWidth="1654" pageHeight="1169" math="0" shadow="0">
      <root>
        <mxCell id="0" />
        <mxCell id="1" parent="0" />
        <mxCell id="title" value="🍳 Aye-Aye Chef - Complete User Flow" style="text;html=1;strokeColor=none;fillColor=none;align=center;verticalAlign=middle;whiteSpace=wrap;rounded=0;fontSize=28;fontStyle=1;fontColor=#2E7D32;" parent="1" vertex="1">
          <mxGeometry x="400" y="20" width="800" height="50" as="geometry" />
        </mxCell>
        <mxCell id="step1-title" value="📱 STEP 1: User Takes Photo" style="rounded=1;whiteSpace=wrap;html=1;fillColor=#E8F5E8;strokeColor=#4CAF50;fontSize=16;fontStyle=1;" parent="1" vertex="1">
          <mxGeometry x="80" y="100" width="300" height="40" as="geometry" />
        </mxCell>
        <mxCell id="user-phone" value="👤 User" style="rounded=1;whiteSpace=wrap;html=1;fillColor=#FFF3E0;strokeColor=#FF9800;fontSize=14;fontStyle=1;" parent="1" vertex="1">
          <mxGeometry x="100" y="160" width="80" height="60" as="geometry" />
        </mxCell>
        <mxCell id="camera-action" value="📸 Takes Photo&#xa;of Ingredients" style="rounded=1;whiteSpace=wrap;html=1;fillColor=#E3F2FD;strokeColor=#2196F3;" parent="1" vertex="1">
          <mxGeometry x="200" y="160" width="120" height="60" as="geometry" />
        </mxCell>
        <mxCell id="mobile-app" value="📱 React Native&#xa;Mobile App" style="rounded=1;whiteSpace=wrap;html=1;fillColor=#F3E5F5;strokeColor=#9C27B0;" parent="1" vertex="1">
          <mxGeometry x="340" y="160" width="120" height="60" as="geometry" />
        </mxCell>
        <mxCell id="step2-title" value="☁️ STEP 2: Image Upload &amp; Processing" style="rounded=1;whiteSpace=wrap;html=1;fillColor=#E8F5E8;strokeColor=#4CAF50;fontSize=16;fontStyle=1;" parent="1" vertex="1">
          <mxGeometry x="80" y="260" width="380" height="40" as="geometry" />
        </mxCell>
        <mxCell id="s3-upload" value="🪣 Amazon S3&#xa;Image Storage" style="rounded=1;whiteSpace=wrap;html=1;fillColor=#FFF8E1;strokeColor=#FFC107;" parent="1" vertex="1">
          <mxGeometry x="100" y="320" width="100" height="60" as="geometry" />
        </mxCell>
        <mxCell id="api-gateway" value="🌐 API Gateway&#xa;REST Endpoints" style="rounded=1;whiteSpace=wrap;html=1;fillColor=#FFEBEE;strokeColor=#F44336;" parent="1" vertex="1">
          <mxGeometry x="220" y="320" width="100" height="60" as="geometry" />
        </mxCell>
        <mxCell id="lambda-detect" value="🔍 Detect Lambda&#xa;Start Processing" style="rounded=1;whiteSpace=wrap;html=1;fillColor=#E1F5FE;strokeColor=#03A9F4;" parent="1" vertex="1">
          <mxGeometry x="340" y="320" width="100" height="60" as="geometry" />
        </mxCell>
        <mxCell id="step3-title" value="🤖 STEP 3: AI Ingredient Detection" style="rounded=1;whiteSpace=wrap;html=1;fillColor=#E8F5E8;strokeColor=#4CAF50;fontSize=16;fontStyle=1;" parent="1" vertex="1">
          <mxGeometry x="520" y="100" width="300" height="40" as="geometry" />
        </mxCell>
        <mxCell id="bedrock-vision" value="👁️ Bedrock Vision&#xa;Image Recognition&#xa;Ingredient Detection" style="rounded=1;whiteSpace=wrap;html=1;fillColor=#FCE4EC;strokeColor=#E91E63;" parent="1" vertex="1">
          <mxGeometry x="540" y="160" width="140" height="80" as="geometry" />
        </mxCell>
        <mxCell id="ai-results" value="📋 Detection Results&#xa;• Banana (95%)&#xa;• Spinach (87%)&#xa;• Onion (92%)" style="rounded=1;whiteSpace=wrap;html=1;fillColor=#F1F8E9;strokeColor=#8BC34A;" parent="1" vertex="1">
          <mxGeometry x="700" y="160" width="140" height="80" as="geometry" />
        </mxCell>
        <mxCell id="step4-title" value="✅ STEP 4: User Confirms &amp; Customizes" style="rounded=1;whiteSpace=wrap;html=1;fillColor=#E8F5E8;strokeColor=#4CAF50;fontSize=16;fontStyle=1;" parent="1" vertex="1">
          <mxGeometry x="520" y="260" width="320" height="40" as="geometry" />
        </mxCell>
        <mxCell id="confirm-ingredients" value="✅ Confirm Ingredients&#xa;Add Missing Items" style="rounded=1;whiteSpace=wrap;html=1;fillColor=#E8EAF6;strokeColor=#3F51B5;" parent="1" vertex="1">
          <mxGeometry x="540" y="320" width="120" height="60" as="geometry" />
        </mxCell>
        <mxCell id="select-preferences" value="🎯 Select Preferences&#xa;• Cuisine: Italian&#xa;• Skill: Intermediate&#xa;• Servings: 2" style="rounded=1;whiteSpace=wrap;html=1;fillColor=#E8EAF6;strokeColor=#3F51B5;" parent="1" vertex="1">
          <mxGeometry x="680" y="320" width="140" height="60" as="geometry" />
        </mxCell>
        <mxCell id="step5-title" value="🍳 STEP 5: AI Recipe Generation" style="rounded=1;whiteSpace=wrap;html=1;fillColor=#E8F5E8;strokeColor=#4CAF50;fontSize=16;fontStyle=1;" parent="1" vertex="1">
          <mxGeometry x="80" y="420" width="760" height="40" as="geometry" />
        </mxCell>
        <mxCell id="bedrock-agent" value="🤖 Bedrock Agent&#xa;AI Orchestration&#xa;Recipe Logic" style="rounded=1;whiteSpace=wrap;html=1;fillColor=#FFF3E0;strokeColor=#FF9800;fontStyle=1;" parent="1" vertex="1">
          <mxGeometry x="100" y="480" width="120" height="80" as="geometry" />
        </mxCell>
        <mxCell id="claude-llm" value="🧠 Claude LLM&#xa;Natural Language&#xa;Recipe Creation" style="rounded=1;whiteSpace=wrap;html=1;fillColor=#FFF3E0;strokeColor=#FF9800;" parent="1" vertex="1">
          <mxGeometry x="240" y="480" width="120" height="80" as="geometry" />
        </mxCell>
        <mxCell id="cuisine-logic" value="🌍 Cuisine Logic&#xa;Italian Techniques&#xa;Authentic Methods" style="rounded=1;whiteSpace=wrap;html=1;fillColor=#E8F5E8;strokeColor=#4CAF50;" parent="1" vertex="1">
          <mxGeometry x="380" y="480" width="120" height="80" as="geometry" />
        </mxCell>
        <mxCell id="nutrition-api" value="🥗 USDA API&#xa;Nutrition Facts&#xa;Calorie Calculation" style="rounded=1;whiteSpace=wrap;html=1;fillColor=#F3E5F5;strokeColor=#9C27B0;" parent="1" vertex="1">
          <mxGeometry x="520" y="480" width="120" height="80" as="geometry" />
        </mxCell>
        <mxCell id="recipe-output" value="📖 3 Unique Recipes&#xa;• Spinach Banana Smoothie&#xa;• Italian Spinach Frittata&#xa;• Caramelized Onion Tart" style="rounded=1;whiteSpace=wrap;html=1;fillColor=#E1F5FE;strokeColor=#03A9F4;fontStyle=1;" parent="1" vertex="1">
          <mxGeometry x="660" y="480" width="160" height="80" as="geometry" />
        </mxCell>
        <mxCell id="step6-title" value="📱 STEP 6: Recipe Display &amp; Cooking" style="rounded=1;whiteSpace=wrap;html=1;fillColor=#E8F5E8;strokeColor=#4CAF50;fontSize=16;fontStyle=1;" parent="1" vertex="1">
          <mxGeometry x="80" y="600" width="760" height="40" as="geometry" />
        </mxCell>
        <mxCell id="recipe-display" value="📋 Recipe Details&#xa;• Ingredients &amp; Amounts&#xa;• Step-by-step Instructions&#xa;• Cooking Times&#xa;• Nutrition Facts" style="rounded=1;whiteSpace=wrap;html=1;fillColor=#F1F8E9;strokeColor=#8BC34A;" parent="1" vertex="1">
          <mxGeometry x="100" y="660" width="160" height="80" as="geometry" />
        </mxCell>
        <mxCell id="cooking-guide" value="👨‍🍳 Cooking Guide&#xa;• Temperature Settings&#xa;• Timing Alerts&#xa;• Technique Tips&#xa;• Safety Notes" style="rounded=1;whiteSpace=wrap;html=1;fillColor=#FFF8E1;strokeColor=#FFC107;" parent="1" vertex="1">
          <mxGeometry x="280" y="660" width="160" height="80" as="geometry" />
        </mxCell>
        <mxCell id="share-save" value="💾 Share &amp; Save&#xa;• Save to Favorites&#xa;• Share with Friends&#xa;• Rate Recipe&#xa;• Add Notes" style="rounded=1;whiteSpace=wrap;html=1;fillColor=#FCE4EC;strokeColor=#E91E63;" parent="1" vertex="1">
          <mxGeometry x="460" y="660" width="160" height="80" as="geometry" />
        </mxCell>
        <mxCell id="happy-user" value="😋 Happy User&#xa;Cooking Success!" style="rounded=1;whiteSpace=wrap;html=1;fillColor=#E8F5E8;strokeColor=#4CAF50;fontStyle=1;fontSize=16;" parent="1" vertex="1">
          <mxGeometry x="660" y="660" width="160" height="80" as="geometry" />
        </mxCell>
        <mxCell id="storage-title" value="💾 Data Storage &amp; Infrastructure" style="rounded=1;whiteSpace=wrap;html=1;fillColor=#ECEFF1;strokeColor=#607D8B;fontSize=16;fontStyle=1;" parent="1" vertex="1">
          <mxGeometry x="900" y="100" width="300" height="40" as="geometry" />
        </mxCell>
        <mxCell id="rds-database" value="🗄️ Amazon RDS&#xa;PostgreSQL&#xa;• User Data&#xa;• Recipe History&#xa;• Preferences" style="rounded=1;whiteSpace=wrap;html=1;fillColor=#F5F5F5;strokeColor=#9E9E9E;" parent="1" vertex="1">
          <mxGeometry x="920" y="160" width="120" height="100" as="geometry" />
        </mxCell>
        <mxCell id="cognito-auth" value="🔐 AWS Cognito&#xa;User Authentication&#xa;• Sign Up/In&#xa;• JWT Tokens&#xa;• Security" style="rounded=1;whiteSpace=wrap;html=1;fillColor=#F5F5F5;strokeColor=#9E9E9E;" parent="1" vertex="1">
          <mxGeometry x="1060" y="160" width="120" height="100" as="geometry" />
        </mxCell>
        <mxCell id="monitoring" value="📊 CloudWatch&#xa;Monitoring&#xa;• Performance&#xa;• Errors&#xa;• Usage Analytics" style="rounded=1;whiteSpace=wrap;html=1;fillColor=#F5F5F5;strokeColor=#9E9E9E;" parent="1" vertex="1">
          <mxGeometry x="920" y="280" width="120" height="100" as="geometry" />
        </mxCell>
        <mxCell id="secrets" value="🔑 Secrets Manager&#xa;API Keys&#xa;• USDA API Key&#xa;• Database Credentials&#xa;• Security Keys" style="rounded=1;whiteSpace=wrap;html=1;fillColor=#F5F5F5;strokeColor=#9E9E9E;" parent="1" vertex="1">
          <mxGeometry x="1060" y="280" width="120" height="100" as="geometry" />
        </mxCell>
        <mxCell id="flow1" style="edgeStyle=orthogonalEdgeStyle;rounded=0;orthogonalLoop=1;jettySize=auto;html=1;strokeWidth=3;strokeColor=#4CAF50;endArrow=classic;endSize=8;" parent="1" source="user-phone" target="camera-action" edge="1">
          <mxGeometry relative="1" as="geometry" />
        </mxCell>
        <mxCell id="flow2" style="edgeStyle=orthogonalEdgeStyle;rounded=0;orthogonalLoop=1;jettySize=auto;html=1;strokeWidth=3;strokeColor=#4CAF50;endArrow=classic;endSize=8;" parent="1" source="camera-action" target="mobile-app" edge="1">
          <mxGeometry relative="1" as="geometry" />
        </mxCell>
        <mxCell id="flow3" style="edgeStyle=orthogonalEdgeStyle;rounded=0;orthogonalLoop=1;jettySize=auto;html=1;strokeWidth=3;strokeColor=#2196F3;endArrow=classic;endSize=8;" parent="1" source="mobile-app" target="s3-upload" edge="1">
          <mxGeometry relative="1" as="geometry">
            <Array as="points">
              <mxPoint x="400" y="240" />
              <mxPoint x="150" y="240" />
            </Array>
          </mxGeometry>
        </mxCell>
        <mxCell id="flow4" style="edgeStyle=orthogonalEdgeStyle;rounded=0;orthogonalLoop=1;jettySize=auto;html=1;strokeWidth=3;strokeColor=#2196F3;endArrow=classic;endSize=8;" parent="1" source="s3-upload" target="api-gateway" edge="1">
          <mxGeometry relative="1" as="geometry" />
        </mxCell>
        <mxCell id="flow5" style="edgeStyle=orthogonalEdgeStyle;rounded=0;orthogonalLoop=1;jettySize=auto;html=1;strokeWidth=3;strokeColor=#2196F3;endArrow=classic;endSize=8;" parent="1" source="api-gateway" target="lambda-detect" edge="1">
          <mxGeometry relative="1" as="geometry" />
        </mxCell>
        <mxCell id="flow6" style="edgeStyle=orthogonalEdgeStyle;rounded=0;orthogonalLoop=1;jettySize=auto;html=1;strokeWidth=3;strokeColor=#E91E63;endArrow=classic;endSize=8;" parent="1" source="lambda-detect" target="bedrock-vision" edge="1">
          <mxGeometry relative="1" as="geometry">
            <Array as="points">
              <mxPoint x="480" y="350" />
              <mxPoint x="480" y="200" />
            </Array>
          </mxGeometry>
        </mxCell>
        <mxCell id="flow7" style="edgeStyle=orthogonalEdgeStyle;rounded=0;orthogonalLoop=1;jettySize=auto;html=1;strokeWidth=3;strokeColor=#E91E63;endArrow=classic;endSize=8;" parent="1" source="bedrock-vision" target="ai-results" edge="1">
          <mxGeometry relative="1" as="geometry" />
        </mxCell>
        <mxCell id="flow8" style="edgeStyle=orthogonalEdgeStyle;rounded=0;orthogonalLoop=1;jettySize=auto;html=1;strokeWidth=3;strokeColor=#3F51B5;endArrow=classic;endSize=8;exitX=0.5;exitY=1;exitDx=0;exitDy=0;" parent="1" source="ai-results" edge="1">
          <mxGeometry relative="1" as="geometry">
            <Array as="points">
              <mxPoint x="770" y="290" />
              <mxPoint x="600" y="290" />
            </Array>
            <mxPoint x="770" y="250" as="sourcePoint" />
            <mxPoint x="600" y="330" as="targetPoint" />
          </mxGeometry>
        </mxCell>
        <mxCell id="flow9" style="edgeStyle=orthogonalEdgeStyle;rounded=0;orthogonalLoop=1;jettySize=auto;html=1;strokeWidth=3;strokeColor=#3F51B5;endArrow=classic;endSize=8;" parent="1" source="confirm-ingredients" target="select-preferences" edge="1">
          <mxGeometry relative="1" as="geometry" />
        </mxCell>
        <mxCell id="flow10" style="edgeStyle=orthogonalEdgeStyle;rounded=0;orthogonalLoop=1;jettySize=auto;html=1;strokeWidth=3;strokeColor=#FF9800;endArrow=classic;endSize=8;" parent="1" source="select-preferences" target="bedrock-agent" edge="1">
          <mxGeometry relative="1" as="geometry">
            <Array as="points">
              <mxPoint x="750" y="400" />
              <mxPoint x="160" y="400" />
            </Array>
          </mxGeometry>
        </mxCell>
        <mxCell id="flow11" style="edgeStyle=orthogonalEdgeStyle;rounded=0;orthogonalLoop=1;jettySize=auto;html=1;strokeWidth=2;strokeColor=#FF9800;endArrow=classic;endSize=6;" parent="1" source="bedrock-agent" target="claude-llm" edge="1">
          <mxGeometry relative="1" as="geometry" />
        </mxCell>
        <mxCell id="flow12" style="edgeStyle=orthogonalEdgeStyle;rounded=0;orthogonalLoop=1;jettySize=auto;html=1;strokeWidth=2;strokeColor=#FF9800;endArrow=classic;endSize=6;" parent="1" source="claude-llm" target="cuisine-logic" edge="1">
          <mxGeometry relative="1" as="geometry" />
        </mxCell>
        <mxCell id="flow13" style="edgeStyle=orthogonalEdgeStyle;rounded=0;orthogonalLoop=1;jettySize=auto;html=1;strokeWidth=2;strokeColor=#FF9800;endArrow=classic;endSize=6;" parent="1" source="cuisine-logic" target="nutrition-api" edge="1">
          <mxGeometry relative="1" as="geometry" />
        </mxCell>
        <mxCell id="flow14" style="edgeStyle=orthogonalEdgeStyle;rounded=0;orthogonalLoop=1;jettySize=auto;html=1;strokeWidth=3;strokeColor=#03A9F4;endArrow=classic;endSize=8;" parent="1" source="nutrition-api" target="recipe-output" edge="1">
          <mxGeometry relative="1" as="geometry" />
        </mxCell>
        <mxCell id="flow15" style="edgeStyle=orthogonalEdgeStyle;rounded=0;orthogonalLoop=1;jettySize=auto;html=1;strokeWidth=3;strokeColor=#8BC34A;endArrow=classic;endSize=8;" parent="1" source="recipe-output" target="recipe-display" edge="1">
          <mxGeometry relative="1" as="geometry">
            <Array as="points">
              <mxPoint x="740" y="580" />
              <mxPoint x="180" y="580" />
            </Array>
          </mxGeometry>
        </mxCell>
        <mxCell id="flow16" style="edgeStyle=orthogonalEdgeStyle;rounded=0;orthogonalLoop=1;jettySize=auto;html=1;strokeWidth=2;strokeColor=#8BC34A;endArrow=classic;endSize=6;" parent="1" source="recipe-display" target="cooking-guide" edge="1">
          <mxGeometry relative="1" as="geometry" />
        </mxCell>
        <mxCell id="flow17" style="edgeStyle=orthogonalEdgeStyle;rounded=0;orthogonalLoop=1;jettySize=auto;html=1;strokeWidth=2;strokeColor=#8BC34A;endArrow=classic;endSize=6;" parent="1" source="cooking-guide" target="share-save" edge="1">
          <mxGeometry relative="1" as="geometry" />
        </mxCell>
        <mxCell id="flow18" style="edgeStyle=orthogonalEdgeStyle;rounded=0;orthogonalLoop=1;jettySize=auto;html=1;strokeWidth=3;strokeColor=#4CAF50;endArrow=classic;endSize=8;" parent="1" source="share-save" target="happy-user" edge="1">
          <mxGeometry relative="1" as="geometry" />
        </mxCell>
        <mxCell id="legend-title" value="🔍 Flow Legend" style="rounded=1;whiteSpace=wrap;html=1;fillColor=#ECEFF1;strokeColor=#607D8B;fontSize=14;fontStyle=1;" parent="1" vertex="1">
          <mxGeometry x="900" y="420" width="300" height="30" as="geometry" />
        </mxCell>
        <mxCell id="legend1" value="🟢 User Actions" style="text;html=1;strokeColor=#4CAF50;fillColor=#E8F5E8;align=left;verticalAlign=middle;whiteSpace=wrap;rounded=1;strokeWidth=2;" parent="1" vertex="1">
          <mxGeometry x="920" y="460" width="120" height="25" as="geometry" />
        </mxCell>
        <mxCell id="legend2" value="🔵 System Processing" style="text;html=1;strokeColor=#2196F3;fillColor=#E3F2FD;align=left;verticalAlign=middle;whiteSpace=wrap;rounded=1;strokeWidth=2;" parent="1" vertex="1">
          <mxGeometry x="1060" y="460" width="120" height="25" as="geometry" />
        </mxCell>
        <mxCell id="legend3" value="🟣 AI Processing" style="text;html=1;strokeColor=#E91E63;fillColor=#FCE4EC;align=left;verticalAlign=middle;whiteSpace=wrap;rounded=1;strokeWidth=2;" parent="1" vertex="1">
          <mxGeometry x="920" y="495" width="120" height="25" as="geometry" />
        </mxCell>
        <mxCell id="legend4" value="🟠 Recipe Generation" style="text;html=1;strokeColor=#FF9800;fillColor=#FFF3E0;align=left;verticalAlign=middle;whiteSpace=wrap;rounded=1;strokeWidth=2;" parent="1" vertex="1">
          <mxGeometry x="1060" y="495" width="120" height="25" as="geometry" />
        </mxCell>
        <mxCell id="features-title" value="✨ Key Features" style="rounded=1;whiteSpace=wrap;html=1;fillColor=#E8F5E8;strokeColor=#4CAF50;fontSize=14;fontStyle=1;" parent="1" vertex="1">
          <mxGeometry x="900" y="540" width="300" height="30" as="geometry" />
        </mxCell>
        <mxCell id="feature-list" value="🤖 AI-Powered Recipe Generation&#xa;🌍 Multi-Cuisine Support (Italian, Mexican, Thai, Indian)&#xa;👁️ Computer Vision Ingredient Detection&#xa;🎯 Skill-Level Adaptation (Beginner to Advanced)&#xa;🥗 Real-time Nutrition Calculation&#xa;📱 Cross-Platform (Mobile, Web, Tablet)&#xa;🔒 Secure Authentication &amp; Data Storage&#xa;⚡ Serverless Architecture for Scalability" style="text;html=1;strokeColor=#4CAF50;fillColor=#F1F8E9;align=left;verticalAlign=top;whiteSpace=wrap;rounded=1;strokeWidth=1;" parent="1" vertex="1">
          <mxGeometry x="920" y="580" width="260" height="160" as="geometry" />
        </mxCell>
      </root>
    </mxGraphModel>
  </diagram>
</mxfile>
